<?xml version="1.0" standalone="no"?>
<!DOCTYPE svg PUBLIC "-//W3C//DTD SVG 20010904//EN"
 "http://www.w3.org/TR/2001/REC-SVG-20010904/DTD/svg10.dtd">
<svg version="1.0" xmlns="http://www.w3.org/2000/svg"
 width="4000.000000pt" height="4000.000000pt" viewBox="0 0 4000.000000 4000.000000"
 preserveAspectRatio="xMidYMid meet">
<metadata>
Created by potrace 1.14, written by Peter Selinger 2001-2017
</metadata>
<g transform="translate(0.000000,4000.000000) scale(0.100000,-0.100000)"
fill="#000000" stroke="none">
<path d="M20210 31039 c-13 -9 -12 -10 2 -5 10 3 20 1 23 -4 4 -6 1 -10 -5
-10 -6 0 -8 -5 -4 -11 4 -8 1 -8 -13 -1 -26 14 -51 -1 -35 -20 9 -12 6 -14
-17 -12 -16 1 -35 -2 -42 -7 -10 -6 -10 -9 -2 -9 7 0 2 -10 -10 -23 -12 -13
-26 -21 -30 -19 -5 2 -4 -6 3 -18 13 -24 4 -43 -10 -20 -8 12 -11 13 -22 2 -7
-8 -8 -13 -3 -12 22 5 29 -1 15 -11 -12 -8 -9 -9 10 -5 14 3 19 3 13 0 -7 -3
-13 -12 -13 -20 0 -8 -5 -14 -11 -14 -5 0 -8 4 -5 8 3 5 -2 9 -10 9 -10 0 -11
-4 -5 -10 7 -7 7 -15 0 -24 -8 -9 -8 -13 0 -13 6 0 11 5 11 10 0 6 8 10 18 10
15 0 18 -8 17 -42 -2 -66 50 -178 83 -178 6 0 12 -4 14 -9 9 -24 87 -48 144
-44 79 4 84 5 84 14 0 4 14 12 30 18 17 5 30 15 30 20 0 6 8 11 17 11 9 0 14
3 10 6 -3 3 3 16 15 28 27 29 41 64 43 108 0 20 4 40 8 44 11 12 8 52 -5 56
-6 2 -12 14 -13 26 -1 11 2 19 6 16 4 -2 11 0 14 6 4 6 1 9 -7 8 -8 -2 -12 5
-10 17 2 16 1 17 -7 5 -9 -12 -11 -12 -11 -1 0 10 -3 11 -13 3 -10 -8 -13 -6
-13 7 0 10 5 18 11 17 5 -2 7 -1 2 1 -4 3 -4 10 -1 15 4 7 2 8 -4 4 -6 -3 -15
2 -21 11 -7 14 -13 15 -21 7 -14 -14 -97 19 -117 45 -15 20 -54 21 -71 1 -8
-8 -11 -10 -8 -3 4 6 2 14 -4 18 -5 3 -10 -2 -10 -11 0 -16 -1 -16 -18 -1 -13
12 -21 13 -32 6z m-53 -80 c-9 -6 -14 -15 -11 -21 4 -6 3 -8 -3 -5 -15 9 -47
-29 -38 -45 6 -10 5 -10 -4 -2 -15 14 -4 41 20 55 11 5 17 13 15 17 -3 5 5 9
17 9 20 2 20 1 4 -8z m336 5 c3 -3 3 -13 0 -21 -5 -12 -7 -12 -14 -1 -15 23
-4 40 14 22z"/>
<path d="M20555 30860 c-3 -5 -1 -10 4 -10 6 0 11 5 11 10 0 6 -2 10 -4 10 -3
0 -8 -4 -11 -10z"/>
<path d="M20585 30820 c-3 -6 1 -7 9 -4 18 7 21 14 7 14 -6 0 -13 -4 -16 -10z"/>
<path d="M20595 30779 c-4 -6 -5 -12 -2 -15 2 -3 7 2 10 11 7 17 1 20 -8 4z"/>
<path d="M21515 30021 c-3 -5 -2 -12 3 -15 5 -3 9 1 9 9 0 17 -3 19 -12 6z"/>
<path d="M21578 30018 c8 -10 9 -19 3 -22 -5 -3 -11 0 -14 6 -3 10 -9 10 -24
2 -13 -8 -25 -9 -37 -2 -13 8 -21 7 -27 -3 -5 -8 -9 -9 -9 -3 0 6 -7 11 -15
11 -8 0 -12 -4 -9 -9 8 -13 -10 -10 -25 5 -11 10 -12 9 -6 -2 6 -11 4 -13 -8
-8 -12 5 -17 1 -17 -13 0 -10 -5 -22 -12 -26 -6 -4 -8 -3 -4 4 21 34 -192
-102 -228 -146 -6 -7 -21 -24 -33 -37 -13 -13 -23 -28 -23 -33 0 -6 -7 -13
-16 -16 -8 -3 -12 -10 -9 -16 3 -5 1 -10 -5 -10 -8 0 -28 -35 -35 -60 0 -3 -7
-16 -15 -30 -7 -14 -13 -27 -13 -30 1 -6 -6 -29 -17 -56 -5 -12 -7 -90 -6
-175 2 -143 5 -159 30 -219 15 -36 45 -87 66 -115 52 -69 125 -145 139 -145 6
0 11 -4 11 -9 0 -24 184 -115 260 -128 42 -7 163 -7 200 0 56 10 64 12 78 20
6 5 16 6 21 3 5 -3 19 2 32 12 13 9 42 26 64 37 22 11 46 26 53 32 7 7 17 13
22 13 5 0 41 32 80 70 39 39 69 70 65 70 -3 0 6 17 20 37 14 21 25 43 25 50 0
7 3 13 8 13 7 0 36 74 49 124 8 30 12 249 5 261 -3 5 -7 21 -9 35 -7 54 -21
102 -42 143 -32 62 -86 137 -98 137 -7 0 -13 4 -13 9 0 12 -131 111 -147 111
-7 0 -13 3 -13 8 0 4 -19 13 -42 20 -22 7 -51 20 -62 28 -20 13 -19 14 12 10
18 -2 35 1 39 7 3 5 1 7 -5 3 -6 -3 -18 1 -26 10 -11 10 -16 11 -16 3 0 -7 -3
-9 -6 -6 -4 3 -15 2 -25 -3 -13 -8 -20 -6 -28 7 -8 14 -11 15 -11 3 -1 -10 -4
-9 -10 5 -8 18 -9 19 -9 1 -1 -16 -3 -16 -19 4 -16 20 -20 21 -25 7 -4 -11 -2
-14 9 -10 7 3 14 1 14 -4 0 -5 -13 -9 -30 -8 -16 0 -30 3 -30 7 0 5 5 8 11 8
5 0 7 5 3 11 -4 8 -9 7 -14 -2 -7 -10 -12 -10 -27 2 -16 13 -17 12 -5 -3z"/>
<path d="M19785 28495 c-22 -5 -47 -14 -55 -20 -8 -5 -19 -10 -25 -10 -13 0
-99 -56 -103 -66 -2 -5 -10 -9 -18 -9 -8 0 -14 -4 -14 -8 0 -8 -8 -19 -49 -68
-5 -6 -12 -21 -16 -35 -4 -13 -12 -29 -17 -36 -5 -6 -8 -17 -7 -25 1 -7 0 -24
-4 -38 -3 -14 -8 -50 -11 -81 -8 -89 -16 -98 -86 -105 -19 -2 -249 -5 -511 -7
-261 -2 -480 -7 -487 -11 -7 -4 -12 -4 -12 1 0 4 -49 8 -109 8 -62 0 -107 -4
-103 -9 3 -5 -1 -6 -8 -1 -6 4 -51 7 -99 5 -47 -1 -104 -2 -127 -2 -22 -1 -46
2 -52 6 -7 4 -12 4 -12 -1 0 -4 -334 -8 -743 -7 -408 0 -753 -3 -767 -7 -14
-4 -52 -15 -85 -24 -33 -10 -67 -20 -75 -23 -8 -3 -21 -7 -27 -9 -7 -1 -19 -5
-25 -6 -78 -22 -284 -124 -322 -159 -11 -10 -23 -18 -26 -18 -4 0 -18 -10 -32
-22 -13 -13 -39 -34 -57 -48 -68 -51 -171 -160 -233 -245 -4 -5 -19 -24 -33
-41 -13 -17 -22 -34 -18 -38 3 -3 1 -6 -5 -6 -7 0 -12 -7 -12 -15 0 -8 -5 -15
-11 -15 -5 0 -8 -4 -4 -9 3 -6 -2 -14 -11 -19 -9 -5 -16 -13 -16 -18 0 -5 -13
-37 -29 -72 -40 -86 -53 -116 -51 -124 1 -5 -3 -8 -8 -8 -5 0 -9 -3 -8 -7 1
-5 -4 -28 -11 -53 -7 -25 -13 -45 -12 -45 1 0 -5 -22 -13 -50 -8 -27 -17 -66
-21 -85 -3 -19 -9 -46 -12 -60 -3 -14 -6 -95 -6 -180 0 -179 6 -240 35 -345 6
-22 11 -43 10 -47 -1 -5 2 -8 6 -8 4 0 9 -11 10 -25 1 -14 9 -39 17 -55 9 -16
15 -31 15 -32 -1 -4 8 -32 26 -76 7 -18 13 -35 13 -39 -1 -3 3 -9 8 -12 4 -3
22 -32 38 -63 17 -32 33 -58 38 -58 4 0 7 -6 7 -13 0 -7 10 -27 23 -44 12 -16
31 -43 42 -58 22 -31 189 -201 249 -254 63 -55 307 -199 329 -193 4 1 7 -2 7
-7 0 -5 15 -12 33 -17 67 -16 82 -22 65 -23 -10 0 -18 -6 -18 -12 0 -5 4 -8 9
-4 6 3 14 -2 19 -11 8 -15 10 -15 15 0 5 11 3 15 -5 10 -7 -4 -8 -3 -4 4 4 6
14 8 22 5 13 -5 13 -7 2 -14 -9 -6 -7 -9 10 -9 12 0 22 -4 22 -8 0 -5 7 -9 15
-9 8 0 12 4 9 9 -3 4 -1 8 5 8 5 0 11 -6 13 -12 4 -10 10 -10 30 -1 25 11 60
2 40 -11 -6 -3 -12 -2 -14 3 -1 5 -12 3 -23 -6 -20 -15 -20 -15 2 -9 15 5 25
1 33 -11 9 -15 11 -15 6 -1 -4 15 11 28 33 28 4 0 21 -11 37 -25 l29 -25 0
-1210 c0 -800 -3 -1210 -10 -1210 -7 0 -7 -3 0 -8 12 -8 14 -182 2 -182 -5 0
-5 -5 -1 -12 10 -16 11 -158 0 -158 -5 0 -4 -6 0 -12 5 -7 8 -26 7 -43 -1 -16
-5 -136 -8 -265 -6 -283 -14 -412 -30 -530 -4 -25 -8 -56 -9 -70 -2 -14 -7
-45 -11 -70 -8 -42 -10 -60 -20 -120 -2 -14 -6 -36 -9 -50 -3 -13 -8 -41 -11
-61 -3 -20 -10 -51 -15 -69 -5 -18 -7 -37 -4 -41 3 -5 1 -9 -3 -9 -5 0 -9 -8
-10 -17 -1 -10 -5 -31 -8 -48 -4 -16 -7 -38 -7 -47 1 -10 -3 -18 -7 -18 -4 0
-8 -6 -8 -12 -1 -24 -11 -65 -28 -114 -9 -27 -18 -58 -20 -69 -2 -11 -10 -39
-19 -63 -8 -23 -16 -46 -17 -50 -4 -16 -9 -32 -45 -137 -20 -60 -37 -116 -37
-122 0 -7 -4 -13 -8 -13 -4 0 -10 -12 -15 -27 -13 -49 -15 -54 -105 -251 -16
-34 -28 -65 -28 -68 0 -4 -3 -10 -8 -13 -10 -6 -65 -118 -67 -134 -1 -4 -8
-12 -16 -17 -8 -5 -12 -10 -7 -10 4 0 0 -15 -10 -32 -9 -18 -16 -36 -15 -40 1
-5 -2 -8 -6 -8 -4 0 -14 -17 -21 -37 -8 -21 -19 -45 -26 -53 -6 -8 -21 -36
-31 -62 -10 -27 -22 -48 -26 -48 -5 0 -8 -5 -8 -10 0 -14 -153 -324 -162 -328
-5 -2 -8 -8 -8 -14 0 -5 -17 -44 -37 -86 -20 -42 -36 -79 -34 -81 1 -2 -3 -7
-11 -12 -7 -5 -13 -12 -13 -16 -1 -14 -149 -308 -157 -311 -4 -2 -8 -9 -8 -16
0 -14 -134 -285 -150 -303 -6 -7 -9 -13 -6 -13 8 0 -76 -165 -88 -172 -6 -4
-8 -8 -3 -8 10 0 -32 -83 -47 -92 -6 -4 -7 -8 -2 -8 4 0 1 -11 -8 -25 -9 -13
-16 -31 -16 -39 0 -8 -3 -16 -7 -18 -9 -4 -102 -189 -101 -202 0 -5 -4 -12 -9
-15 -11 -8 -337 -664 -335 -673 1 -5 -2 -8 -7 -8 -5 0 -12 -10 -16 -22 -4 -13
-8 -25 -9 -28 -1 -3 -12 -25 -25 -50 -13 -25 -23 -47 -22 -49 2 -2 -2 -7 -9
-11 -6 -4 -12 -13 -14 -21 -1 -8 -8 -24 -14 -36 -7 -13 -9 -23 -5 -23 4 0 3
-4 -4 -8 -13 -8 -326 -631 -326 -649 0 -7 -3 -13 -7 -13 -8 0 -34 -52 -32 -62
1 -5 -3 -8 -9 -8 -5 0 -8 -4 -5 -9 4 -5 3 -11 -1 -13 -5 -1 -19 -28 -33 -58
-14 -30 -27 -57 -30 -60 -10 -10 -244 -486 -244 -498 -1 -7 -6 -16 -11 -20 -6
-4 -21 -32 -35 -62 -14 -30 -27 -57 -30 -60 -5 -5 -142 -280 -145 -290 -2 -7
-97 -197 -120 -240 -11 -19 -20 -37 -20 -40 -1 -3 -25 -52 -55 -110 -30 -58
-54 -107 -55 -110 -1 -3 -50 -102 -110 -220 -60 -118 -109 -217 -110 -220 -1
-3 -16 -34 -35 -70 -19 -36 -35 -71 -36 -79 -2 -8 -8 -17 -14 -21 -7 -4 -11
-9 -9 -11 1 -2 -9 -24 -22 -49 -13 -25 -23 -47 -24 -50 -1 -12 -91 -186 -98
-191 -5 -3 -8 -8 -7 -10 3 -7 -24 -64 -35 -71 -5 -4 -7 -8 -2 -8 4 0 0 -12
-10 -27 -9 -14 -18 -33 -19 -41 -2 -8 -8 -18 -14 -22 -7 -4 -11 -9 -10 -11 3
-8 -30 -78 -40 -84 -6 -4 -8 -10 -5 -15 3 -5 1 -11 -5 -15 -6 -4 -8 -11 -5
-16 4 -5 2 -9 -3 -9 -4 0 -30 -46 -57 -102 -27 -57 -52 -104 -57 -106 -4 -2
-8 -12 -8 -23 0 -10 -5 -19 -12 -19 -6 0 -9 -2 -6 -5 3 -3 -18 -52 -47 -110
-30 -57 -51 -106 -48 -109 4 -3 2 -6 -4 -6 -10 0 -48 -79 -43 -89 1 -2 -2 -7
-7 -10 -11 -7 -263 -515 -263 -529 0 -5 -7 -15 -15 -22 -9 -7 -13 -15 -11 -18
3 -3 -3 -17 -13 -31 -10 -14 -19 -29 -20 -34 0 -4 -13 -31 -28 -60 -15 -28
-27 -54 -28 -57 0 -3 -47 -98 -103 -213 -56 -114 -102 -211 -103 -215 0 -4 -9
-21 -20 -38 -10 -17 -19 -39 -19 -48 0 -9 -4 -16 -10 -16 -5 0 -10 -7 -10 -15
0 -8 -9 -30 -19 -49 -11 -19 -17 -37 -14 -40 3 -3 1 -11 -4 -18 -6 -7 -11 -20
-11 -28 -1 -8 -10 -46 -21 -85 -11 -38 -17 -73 -15 -77 3 -4 1 -8 -4 -8 -5 0
-8 -10 -8 -22 1 -13 0 -27 -3 -33 -9 -17 -13 -81 -14 -265 -1 -196 4 -252 27
-355 12 -51 27 -126 28 -132 0 -5 4 -14 10 -20 6 -7 7 -13 3 -13 -4 0 -2 -7 5
-15 7 -8 10 -15 6 -15 -7 0 33 -110 47 -127 5 -7 7 -13 3 -13 -7 0 118 -244
134 -260 10 -10 50 -69 50 -74 0 -6 6 -14 86 -111 95 -116 288 -299 350 -333
13 -7 24 -17 24 -22 0 -6 6 -10 14 -10 7 0 19 -7 26 -15 7 -9 15 -13 17 -11 3
2 13 -3 24 -12 11 -9 23 -17 27 -17 4 -1 23 -11 42 -23 19 -12 41 -22 48 -22
6 0 12 -3 12 -8 0 -4 12 -13 28 -19 73 -32 108 -47 115 -49 4 -1 9 -3 12 -4 3
-1 8 -3 13 -5 4 -1 21 -7 37 -14 17 -7 39 -15 50 -17 42 -10 50 -13 50 -14 0
-1 9 -4 20 -6 11 -3 25 -6 30 -8 62 -19 183 -39 242 -40 18 -1 33 -3 33 -6 0
-3 142 -6 316 -7 173 -1 318 -4 321 -7 4 -3 12 -1 20 5 7 6 13 8 13 3 0 -9
12474 -10 12845 -1 116 3 224 8 240 12 17 4 39 8 50 10 19 3 40 8 95 21 14 3
34 7 45 8 11 2 21 5 23 6 1 1 5 3 10 4 4 1 23 6 42 10 19 5 41 12 50 17 18 9
50 21 68 25 8 1 39 15 70 29 32 15 62 28 67 29 9 1 82 42 150 83 11 7 29 16
40 22 11 5 31 18 44 30 13 12 30 21 38 21 8 0 11 5 8 10 -3 6 -1 10 4 10 21 0
251 213 251 232 0 5 5 6 10 3 6 -3 10 -2 10 2 0 5 18 29 40 53 22 25 48 57 57
73 10 15 21 27 25 27 4 0 8 7 8 15 0 8 3 15 8 15 4 0 21 23 37 50 17 27 34 50
38 50 5 0 6 4 3 8 -3 5 3 18 14 30 11 11 22 32 26 46 3 14 10 26 14 26 5 0 12
10 15 23 4 12 16 42 27 67 11 25 24 54 28 65 10 23 41 116 44 130 1 6 5 16 9
23 5 6 6 12 3 12 -3 0 -1 11 4 25 5 14 12 36 14 48 3 12 7 32 10 44 14 55 17
70 21 98 2 17 7 50 11 75 10 62 10 323 0 390 -4 30 -9 66 -11 80 -2 14 -7 39
-10 55 -4 17 -7 38 -8 48 -1 9 -5 17 -10 17 -4 0 -6 4 -3 8 5 8 -6 59 -22 102
-3 8 -6 20 -7 25 0 6 -5 19 -9 30 -4 11 -12 34 -18 50 -6 17 -19 50 -30 75
-11 25 -20 47 -18 49 1 2 -2 7 -7 10 -11 8 -53 93 -53 109 0 6 -4 12 -8 12 -5
0 -15 18 -22 40 -7 22 -17 40 -22 40 -4 0 -8 5 -8 11 0 15 -83 183 -92 187 -5
2 -8 12 -8 23 0 10 -4 19 -10 19 -5 0 -10 5 -10 10 0 15 -42 104 -53 111 -5 3
-8 9 -8 13 1 10 -102 221 -112 227 -5 3 -8 9 -8 13 2 10 -122 261 -131 264 -4
2 -8 14 -8 27 0 13 -4 26 -9 29 -11 7 -351 689 -351 704 0 7 -4 12 -9 12 -8 0
-24 32 -26 52 0 3 -3 9 -7 13 -4 4 -19 32 -34 63 -15 32 -32 60 -38 64 -6 4
-8 8 -3 8 4 0 -1 17 -12 38 -10 20 -19 41 -20 45 0 4 -7 15 -16 23 -8 9 -13
20 -10 25 4 5 2 9 -3 9 -8 0 -23 35 -21 49 0 2 -3 7 -8 10 -11 7 -53 93 -53
108 0 6 -4 13 -8 15 -10 4 -66 120 -64 131 1 4 -3 7 -9 7 -5 0 -7 5 -4 10 3 6
3 10 -2 10 -9 0 -33 48 -33 66 0 7 -4 14 -8 16 -9 3 -52 93 -52 108 0 5 -4 10
-8 10 -8 0 -43 72 -46 93 -1 4 -8 12 -16 17 -8 5 -11 10 -7 10 4 0 2 10 -5 23
-7 12 -11 25 -10 30 1 4 -3 7 -9 7 -5 0 -7 5 -4 10 3 6 1 10 -4 10 -6 0 -11 9
-11 20 0 11 -4 20 -8 20 -8 0 -43 72 -46 93 -1 4 -8 12 -16 17 -8 5 -12 10 -8
10 4 0 -4 22 -17 49 -14 27 -25 54 -25 60 0 6 -4 11 -8 11 -5 0 -19 25 -31 55
-13 30 -27 55 -33 55 -5 0 -6 5 -3 10 4 6 2 17 -5 25 -12 15 -93 176 -94 188
-1 4 -7 11 -14 16 -8 5 -13 11 -13 15 3 14 -12 56 -19 56 -4 0 -11 12 -14 26
-4 15 -14 33 -21 41 -8 8 -15 23 -15 34 0 11 -7 22 -15 25 -8 4 -13 10 -10 14
3 5 1 11 -5 15 -6 4 -8 11 -5 16 4 5 1 9 -6 9 -7 0 -9 3 -6 7 4 3 2 12 -3 18
-15 18 -110 213 -110 225 0 5 -5 10 -11 10 -5 0 -7 5 -4 10 3 6 2 10 -2 10 -7
0 -29 41 -37 70 -1 3 -8 16 -16 30 -8 14 -14 29 -15 33 0 4 -6 11 -13 16 -8 5
-13 11 -13 15 1 3 0 8 0 11 -1 3 -2 8 -3 13 -6 21 -41 82 -48 82 -4 0 -5 7 -2
15 4 8 1 15 -6 15 -6 0 -8 5 -5 10 3 6 2 10 -2 10 -7 0 -26 38 -33 68 -1 4
-10 18 -19 32 -10 14 -23 40 -30 58 -8 17 -18 32 -23 32 -5 0 -6 5 -3 10 4 6
2 17 -4 24 -13 15 -114 217 -115 229 -1 4 -7 11 -14 16 -8 5 -13 11 -13 15 1
3 0 8 0 11 -1 3 -2 8 -3 13 -6 21 -41 82 -48 82 -4 0 -5 7 -2 15 4 8 1 15 -6
15 -6 0 -8 5 -5 10 3 6 2 10 -2 10 -7 0 -29 41 -37 70 -1 3 -8 16 -16 30 -8
14 -14 29 -15 33 0 4 -7 12 -15 17 -8 5 -11 10 -6 10 5 0 3 7 -4 15 -7 8 -9
15 -6 15 4 0 -1 12 -12 28 -11 15 -23 38 -27 52 -4 14 -16 36 -26 49 -10 13
-16 27 -13 32 3 5 0 9 -7 9 -7 0 -10 3 -6 6 3 3 -5 23 -18 44 -13 21 -21 41
-18 44 4 3 1 6 -5 6 -7 0 -12 6 -12 14 0 16 -29 73 -47 93 -6 7 -14 26 -18 43
-4 16 -10 30 -15 30 -4 0 -10 10 -14 23 -3 12 -4 22 -3 22 1 0 -8 15 -21 33
-13 17 -20 32 -15 32 4 0 4 4 -2 8 -12 9 -105 195 -105 211 0 6 -5 11 -11 11
-5 0 -7 5 -4 10 3 6 1 10 -4 10 -6 0 -11 7 -11 16 0 9 -9 29 -21 45 -11 16
-17 29 -13 29 4 0 -1 9 -10 19 -10 11 -18 25 -20 33 -2 14 -20 50 -54 110 -11
20 -18 39 -15 42 4 3 1 6 -5 6 -7 0 -11 3 -10 8 2 11 -13 44 -34 75 -11 15
-16 27 -12 27 4 0 0 8 -10 19 -9 10 -19 29 -21 42 -3 13 -9 25 -15 27 -6 2 -8
8 -4 13 3 5 1 9 -3 9 -5 0 -15 17 -22 38 -8 20 -23 51 -35 67 -11 17 -20 31
-19 32 4 4 -75 164 -89 180 -7 9 -12 19 -12 22 2 8 -38 94 -46 101 -6 5 -22
38 -24 50 -3 14 -72 146 -79 151 -5 3 -9 12 -11 20 -3 19 -49 113 -59 120 -5
3 -9 10 -8 15 0 13 -52 118 -61 122 -4 2 -8 9 -8 16 0 18 -24 66 -32 66 -5 0
-8 6 -8 13 0 15 -111 240 -123 248 -5 3 -9 10 -9 15 -2 25 -11 44 -21 44 -6 0
-8 3 -5 6 4 3 -41 99 -98 213 -57 115 -104 213 -104 220 0 6 -3 11 -7 11 -5 0
-21 32 -38 70 -16 38 -34 70 -38 70 -5 0 -5 5 -2 10 3 6 1 10 -4 10 -6 0 -11
8 -11 18 0 10 -5 23 -11 29 -6 6 -12 17 -13 24 -1 8 -11 32 -21 54 -10 22 -19
42 -20 45 -1 3 -6 16 -12 30 -42 99 -61 150 -56 150 3 0 0 6 -6 13 -6 8 -8 17
-4 20 3 4 1 7 -5 7 -7 0 -11 3 -10 8 2 7 -18 74 -32 107 -9 20 -63 192 -66
210 -2 11 -33 120 -42 145 -6 17 -12 46 -26 120 -3 14 -18 85 -22 103 -1 4 -2
8 -4 10 -3 3 -11 39 -14 67 -2 14 -7 41 -11 60 -3 19 -8 49 -11 65 -2 17 -6
41 -10 55 -3 14 -7 39 -9 55 -1 17 -4 30 -5 30 -5 0 -11 48 -14 120 -3 44 -5
80 -6 80 -6 0 -10 207 -14 672 -2 287 -7 527 -11 534 -5 8 -4 10 3 5 9 -5 10
3 6 31 -3 21 -7 40 -9 42 -2 1 0 13 5 26 5 14 5 26 -3 34 -8 8 -8 11 1 11 9 0
10 5 3 18 -7 13 -6 23 1 30 7 7 8 12 3 12 -6 0 -10 99 -10 250 0 138 3 250 7
250 4 0 5 6 2 14 -8 22 -10 226 -2 226 4 0 5 6 2 14 -9 23 -10 226 -1 226 5 0
5 5 1 11 -3 6 -6 216 -6 468 1 560 0 514 14 505 6 -4 8 -3 4 4 -3 5 0 13 6 16
7 3 2 3 -12 -1 -22 -5 -23 -4 -11 11 9 11 10 16 2 16 -7 0 -9 5 -6 10 4 6 12
7 18 3 7 -3 4 2 -5 13 -17 20 -15 64 4 64 5 0 4 -9 -2 -21 -7 -11 -10 -22 -8
-23 2 -1 12 -8 23 -16 19 -14 19 -14 3 5 -13 15 -14 25 -6 39 8 14 7 21 -3 27
-11 7 -11 9 -1 9 7 0 10 4 7 10 -3 6 1 7 9 4 9 -3 13 -11 9 -18 -5 -8 -3 -8 8
1 8 6 18 11 22 11 15 0 19 10 6 18 -7 4 -10 3 -6 -3 3 -5 0 -10 -7 -10 -11 0
-12 4 -3 19 7 10 15 18 20 18 4 0 6 -3 4 -7 -3 -5 1 -14 9 -21 12 -11 14 -10
15 5 1 10 1 22 0 26 -1 5 3 6 9 2 6 -3 8 -10 6 -13 -2 -4 7 -13 21 -19 25 -12
25 -12 7 9 -19 21 -19 21 6 8 23 -12 24 -12 11 4 -12 15 -12 16 5 10 10 -4 25
-12 32 -17 10 -8 16 -7 22 2 4 8 13 10 20 6 8 -5 11 -4 6 3 -3 6 -15 10 -26 9
-10 -1 -16 -5 -13 -11 4 -5 1 -6 -6 -2 -7 5 -9 11 -6 15 11 10 70 8 77 -3 5
-7 8 -4 8 6 0 9 5 20 12 24 8 5 9 2 4 -11 -5 -13 -3 -15 6 -8 7 6 21 9 30 8
10 -2 17 0 17 3 -3 20 3 23 18 11 14 -12 13 -9 -2 16 l-19 30 22 -19 c19 -17
22 -17 16 -3 -3 10 -1 18 5 18 6 1 16 3 21 4 6 1 14 3 20 4 5 0 9 6 7 12 -1 6
4 14 11 16 6 3 12 0 12 -7 0 -6 -4 -9 -8 -6 -4 2 -8 -4 -8 -15 0 -19 1 -19 13
-3 7 10 13 23 13 28 0 6 5 4 10 -4 8 -13 10 -13 10 2 0 11 5 15 15 12 8 -4 12
-11 8 -17 -3 -6 -1 -7 6 -3 9 6 9 11 0 22 -9 11 -7 14 12 15 13 1 27 1 32 0 6
-1 9 8 6 26 0 3 6 10 15 15 9 5 14 13 11 18 -6 10 22 7 30 -3 3 -4 2 -5 -2 -2
-8 7 -33 -15 -33 -29 0 -6 5 -3 10 6 6 10 19 15 30 13 11 -2 19 -1 16 3 -6 10
21 32 30 24 4 -4 4 -1 0 6 -4 7 0 24 8 38 14 20 20 22 36 14 16 -9 20 -8 20 5
0 9 -4 13 -10 10 -17 -10 -11 0 10 17 19 17 19 16 16 -14 -3 -29 -2 -30 9 -15
7 10 12 29 10 42 -1 13 3 23 9 22 6 -1 10 4 8 11 -1 8 2 11 8 7 8 -5 7 -12 -1
-23 -11 -15 -11 -15 6 0 10 9 19 27 20 40 1 13 7 24 13 24 7 1 17 2 23 3 5 0
7 6 3 13 -5 7 -2 9 9 5 8 -3 18 0 21 8 3 8 1 15 -4 17 -6 2 5 19 23 37 17 19
51 64 74 100 24 37 46 71 51 76 4 6 10 15 12 20 1 6 14 27 26 47 13 21 24 40
24 43 0 2 13 32 29 65 16 33 28 60 26 60 -2 0 3 19 11 43 9 23 17 49 19 57 2
8 4 15 5 15 3 0 12 41 13 63 0 12 4 22 7 22 4 0 7 6 7 13 0 13 11 89 20 147 8
48 8 225 0 280 -4 25 -10 63 -13 85 -3 22 -6 47 -7 55 -2 8 -6 21 -10 28 -5 6
-6 12 -3 12 2 0 0 15 -5 33 -6 17 -12 43 -15 56 -3 14 -8 29 -12 35 -3 6 -8
20 -9 31 -2 10 -10 30 -18 42 -9 13 -13 23 -10 23 3 0 -1 13 -9 29 -9 16 -12
31 -9 35 4 3 1 6 -5 6 -7 0 -12 7 -12 15 0 8 -5 15 -12 15 -6 0 -9 3 -5 6 3 3
-10 32 -29 65 -32 53 -38 89 -13 74 5 -3 6 1 2 10 -3 9 -9 13 -12 8 -3 -4 -12
-9 -20 -11 -12 -3 -12 -1 0 14 8 10 9 15 2 11 -7 -4 -14 1 -18 13 -6 18 -17
25 -38 21 -5 -1 -6 3 -3 8 4 5 2 12 -4 16 -5 3 -10 15 -10 26 0 17 -11 24 -34
20 -5 -1 -1 11 9 26 l18 28 -26 -23 c-18 -17 -27 -20 -32 -11 -5 7 -4 10 2 6
6 -4 13 -1 16 7 6 16 -18 30 -48 28 -18 -2 -17 -1 3 8 27 12 28 15 2 17 -11 1
-29 8 -41 16 -17 13 -18 16 -6 24 13 7 13 10 -1 23 -14 13 -15 12 -9 -3 3 -9
2 -17 -3 -17 -6 0 -10 7 -10 16 0 11 -5 14 -17 10 -10 -4 -14 -4 -11 0 10 9
-50 57 -62 49 -5 -3 -10 1 -10 10 0 9 -4 13 -10 10 -6 -4 -10 5 -10 19 0 26
-14 35 -25 16 -9 -15 -37 9 -31 26 3 7 1 16 -5 19 -5 4 -7 10 -5 14 3 4 -5 7
-17 8 -12 0 -16 -1 -9 -4 6 -3 9 -10 6 -15 -4 -6 -2 -8 4 -4 6 3 13 2 17 -4
14 -23 -64 0 -92 26 -10 10 -9 13 2 17 7 3 15 2 17 -2 2 -5 12 -5 23 0 19 7
19 8 -2 8 -12 1 -24 7 -26 14 -4 10 -6 10 -6 0 -1 -15 -31 -18 -31 -4 0 5 -7
11 -14 14 -11 4 -14 1 -10 -11 2 -9 -1 -7 -7 6 -14 26 -31 30 -22 5 4 -12 0
-11 -11 5 -10 12 -14 28 -10 35 4 6 4 9 0 5 -11 -9 -36 14 -28 26 3 5 0 6 -7
2 -9 -6 -9 -12 3 -25 9 -10 16 -21 16 -24 0 -10 -38 -8 -44 2 -3 4 -20 11 -37
15 -19 3 -29 11 -26 18 2 7 10 12 17 10 10 -2 11 0 2 11 -7 8 -8 17 -4 22 4 4
-4 1 -18 -7 -14 -9 -34 -14 -45 -13 -39 6 -65 17 -65 29 0 6 -5 4 -10 -4 -8
-13 -10 -13 -10 -1 0 11 -3 12 -11 4 -8 -8 -20 -8 -43 -1 -40 13 -1604 20
-1628 7 -11 -6 -19 -5 -24 3 -4 7 -3 8 4 4 7 -4 12 -2 12 4 0 6 -12 8 -32 5
-40 -7 -50 -14 -42 -27 4 -6 -2 -5 -15 1 -12 7 -26 9 -31 6 -5 -3 -12 0 -16 6
-4 7 -3 9 4 5 6 -3 13 -2 17 4 3 5 11 10 16 10 6 0 7 -4 4 -10 -3 -5 -1 -10 5
-10 7 0 9 7 6 16 -4 9 -1 24 6 33 8 10 3 8 -11 -4 -22 -18 -24 -18 -18 -2 4
11 3 16 -3 12 -6 -4 -9 -14 -8 -23 3 -14 -6 -17 -54 -16 -31 0 -55 -3 -52 -8
7 -11 -4 -10 -28 3 -15 8 -19 8 -14 0 4 -6 2 -11 -3 -11 -6 0 -11 5 -11 11 0
5 -5 7 -10 4 -8 -5 -7 -12 2 -23 12 -15 11 -16 -5 -3 -10 8 -15 21 -12 29 4
12 2 12 -8 4 -8 -7 -18 -8 -23 -4 -5 4 -1 -2 9 -14 14 -17 14 -21 2 -21 -8 0
-12 4 -9 9 3 4 1 8 -5 8 -5 0 -12 -6 -15 -12 -3 -7 -3 -3 0 10 3 12 2 22 -3
21 -20 -3 -25 2 -13 16 7 9 11 17 9 19 -2 2 -15 -11 -29 -28 -13 -17 -17 -25
-8 -18 13 10 17 10 21 -2 4 -11 1 -13 -10 -9 -12 5 -14 3 -8 -8 8 -12 6 -12
-9 0 -10 9 -16 24 -13 37 2 14 0 21 -8 18 -7 -3 -11 -18 -9 -37 3 -24 1 -28
-6 -17 -8 12 -10 13 -10 1 0 -8 -3 -11 -6 -8 -4 4 -1 14 7 24 9 11 10 14 1 9
-8 -5 -15 1 -20 15 l-9 23 -5 -22 c-4 -12 -2 -20 3 -16 5 3 9 0 9 -5 0 -6 -9
-11 -21 -11 -13 0 -18 4 -13 13 4 6 4 9 -1 5 -4 -4 -15 1 -24 10 -9 10 -13 13
-8 8 10 -14 9 -28 -2 -21 -5 3 -12 1 -16 -5 -9 -15 -25 -12 -25 6 0 8 4 13 8
10 5 -3 9 1 9 9 0 8 -3 13 -6 12 -3 -1 -7 3 -8 8 -1 6 6 9 17 9 11 -1 17 2 15
6 -6 10 -25 8 -43 -4 -9 -5 -10 -12 -3 -20 6 -7 6 -17 1 -26 -6 -9 -4 -20 3
-30 11 -13 10 -13 -5 -1 -10 7 -15 17 -12 22 3 5 -2 6 -10 3 -8 -3 -12 -13 -9
-22 3 -9 -5 -3 -17 13 -12 17 -20 23 -17 14 3 -9 -4 -21 -16 -28 -18 -11 -20
-11 -9 0 17 18 15 34 -3 19 -9 -8 -15 -9 -15 -2 0 6 10 18 23 28 13 10 16 14
5 11 -9 -3 -19 -3 -21 1 -2 4 -2 2 -1 -5 2 -6 -4 -17 -11 -23 -8 -7 -12 -17
-9 -24 3 -6 -5 0 -17 14 -12 14 -20 18 -17 9 4 -9 2 -22 -3 -30 -6 -10 -9 -11
-10 -1 -1 6 -2 16 -3 22 0 5 -8 15 -16 22 -12 11 -12 11 -1 -4 9 -12 10 -18 3
-18 -6 0 -9 -8 -6 -17 5 -15 4 -15 -4 -3 -6 8 -9 17 -7 20 5 8 -43 5 -51 -3
-4 -3 -16 -1 -28 5 -19 10 -20 10 -7 -6 12 -14 12 -16 -3 -10 -9 3 -16 14 -16
23 0 9 -3 12 -8 6 -7 -10 -14 -12 -57 -22 -16 -3 -15 -1 5 10 l25 15 -27 -1
c-14 -1 -25 -4 -23 -7 2 -3 0 -12 -6 -20 -7 -13 -9 -12 -9 3 0 9 -5 17 -11 17
-5 0 -7 -5 -3 -12 4 -6 3 -8 -4 -4 -6 3 -13 2 -17 -3 -3 -6 -13 -7 -22 -4 -12
5 -14 3 -8 -7 5 -9 4 -11 -4 -6 -9 6 -9 11 0 22 14 17 -2 19 -20 2 -10 -11
-12 -9 -9 6 2 10 -4 21 -12 23 -12 4 -12 3 -1 -5 9 -7 10 -12 2 -16 -6 -4 -8
-12 -5 -18 5 -7 2 -8 -6 -3 -10 6 -12 4 -6 -11 6 -15 5 -16 -5 -7 -10 10 -10
15 0 27 10 12 9 15 -8 13 -11 0 -17 -6 -15 -12 3 -5 -2 -1 -12 10 -10 12 -15
14 -12 5 3 -8 -1 -21 -9 -29 -13 -12 -14 -11 -8 10 7 22 7 23 -10 9 -11 -8
-16 -10 -13 -5 4 6 2 17 -4 25 -8 13 -9 13 -5 -1 3 -9 1 -22 -4 -30 -7 -11 -9
-11 -9 -1 0 14 -24 42 -36 42 -4 0 1 -10 12 -22 20 -23 5 -18 -31 11 -14 11
-13 7 5 -14 14 -17 21 -27 16 -23 -5 4 -15 3 -22 -2 -9 -8 -12 -6 -10 7 0 10
-6 18 -14 18 -8 0 -14 -5 -13 -12 2 -7 -4 -10 -12 -6 -11 4 -13 9 -5 18 8 9 4
11 -15 7 -14 -2 -25 -9 -25 -14 0 -5 -5 -6 -10 -3 -8 5 -7 12 1 22 7 8 -4 5
-27 -8 l-39 -23 20 24 c13 16 14 20 3 12 -13 -10 -17 -10 -21 0 -3 7 -4 -2 -3
-20 2 -18 -1 -35 -6 -38 -4 -3 -8 -2 -7 3 4 23 -3 42 -17 47 -14 6 -15 4 -4
-9 20 -25 -9 -15 -33 10 -18 20 -18 20 -8 -2 8 -16 7 -22 -3 -26 -7 -3 -13 1
-14 9 -1 8 -3 21 -4 29 -1 8 -5 12 -10 9 -5 -3 -6 -9 -3 -14 3 -5 -4 -14 -15
-20 -11 -6 -20 -8 -20 -5 0 3 -12 -2 -27 -11 l-28 -16 25 20 c13 11 29 20 34
19 4 -1 11 5 13 13 4 13 3 13 -6 0 -10 -13 -11 -13 -11 0 0 12 -2 13 -9 1 -5
-8 -14 -10 -21 -6 -8 5 -11 4 -7 -2 4 -6 0 -13 -8 -17 -8 -3 -17 -1 -21 5 -4
6 -11 6 -20 -2 -8 -6 -14 -8 -14 -4 0 4 -7 2 -16 -5 -12 -11 -15 -11 -12 1 2
8 -3 13 -10 11 -8 -1 -11 2 -8 7 4 5 -1 14 -10 19 -15 8 -15 10 0 15 11 5 15
3 10 -5 -5 -7 -3 -8 6 -3 9 6 11 4 5 -5 -6 -9 -4 -11 4 -6 15 10 -11 42 -41
51 -17 6 -17 8 4 27 14 12 17 18 7 15 -9 -3 -16 1 -16 8 0 7 6 11 13 8 6 -2
15 0 19 6 4 7 0 8 -11 4 -14 -5 -16 -1 -12 26 3 23 0 35 -9 38 -12 5 -12 7 -1
14 10 7 8 9 -7 10 -11 1 -24 1 -29 0 -5 -1 -4 4 2 12 9 10 9 16 0 25 -14 14
-20 44 -7 37 5 -4 6 1 3 9 -3 9 -10 14 -14 11 -5 -3 -11 -1 -15 5 -4 6 -12 7
-18 4 -7 -4 -9 -4 -5 0 3 4 -2 26 -12 49 -10 23 -16 46 -13 52 4 5 -2 2 -13
-7 -18 -15 -20 -15 -39 0 -23 20 -32 52 -14 52 7 0 10 3 7 6 -4 3 -16 0 -28
-6 -12 -6 -28 -9 -37 -6 -13 5 -13 9 -2 23 8 9 9 14 2 10 -6 -4 -13 -2 -15 5
-3 7 -7 5 -11 -6 -5 -11 -3 -15 5 -10 7 4 8 3 4 -5 -10 -15 -29 -3 -22 15 3 8
0 11 -10 7 -8 -3 -22 1 -31 8 -15 12 -16 12 -10 -4 6 -15 4 -16 -16 -5 -27 15
-119 17 -172 3z m223 -40 c-3 -3 -9 2 -12 12 -6 14 -5 15 5 6 7 -7 10 -15 7
-18z m97 -15 c3 -5 1 -10 -4 -10 -6 0 -11 5 -11 10 0 6 2 10 4 10 3 0 8 -4 11
-10z m205 -265 c0 -2 -6 -8 -13 -14 -10 -8 -14 -7 -14 2 0 8 6 14 14 14 7 0
13 -1 13 -2z m360 -210 c-7 -9 -15 -13 -19 -10 -3 3 1 10 9 15 21 14 24 12 10
-5z m53 2 c3 -8 -1 -14 -8 -14 -7 0 -11 6 -8 14 3 7 6 13 8 13 2 0 5 -6 8 -13z
m456 -10 c0 -8 -2 -8 -6 1 -4 10 -8 10 -21 0 -15 -12 -16 -11 -3 4 14 19 32
15 30 -5z m703 -9 c-8 -8 -9 -4 -5 13 4 13 8 18 11 10 2 -7 -1 -18 -6 -23z
m47 15 c-6 -7 -15 -10 -20 -7 -13 8 -3 21 15 21 12 0 13 -4 5 -14z m121 2 c-7
-9 -15 -13 -19 -10 -3 3 1 10 9 15 21 14 24 12 10 -5z m-1530 1 c0 -2 -7 -7
-16 -10 -8 -3 -12 -2 -9 4 6 10 25 14 25 6z m750 -6 c0 -5 -2 -10 -4 -10 -3 0
-8 5 -11 10 -3 6 -1 10 4 10 6 0 11 -4 11 -10z m300 2 c0 -5 -7 -9 -15 -9 -8
0 -15 4 -15 9 0 4 7 8 15 8 8 0 15 -4 15 -8z m2338 -42 c-7 -10 -14 -17 -17
-15 -4 4 18 35 25 35 2 0 -1 -9 -8 -20z m592 -394 c0 -3 -4 -8 -10 -11 -5 -3
-10 -1 -10 4 0 6 5 11 10 11 6 0 10 -2 10 -4z m60 -60 c0 -3 -4 -8 -10 -11 -5
-3 -10 -1 -10 4 0 6 5 11 10 11 6 0 10 -2 10 -4z m-280 -2081 c-7 -9 -15 -13
-17 -11 -6 6 20 36 26 30 2 -2 -2 -10 -9 -19z m-90 -49 c0 -2 -7 -7 -16 -10
-8 -3 -12 -2 -9 4 6 10 25 14 25 6z m-216 -105 c3 -5 -1 -14 -8 -20 -10 -9
-16 -9 -21 -1 -4 6 -1 9 7 8 7 -2 12 3 11 10 -3 14 3 16 11 3z"/>
<path d="M20130 28426 c0 -2 7 -9 15 -16 13 -11 14 -10 9 4 -5 14 -24 23 -24
12z"/>
<path d="M20211 28369 c-1 -9 8 -27 19 -40 10 -13 19 -18 20 -11 0 6 -4 12 -9
12 -5 0 -14 12 -19 28 -6 15 -11 20 -11 11z"/>
<path d="M20274 28255 c10 -7 15 -18 11 -24 -3 -7 0 -8 9 -5 12 5 13 9 3 25
-6 10 -19 19 -27 19 -12 -1 -11 -4 4 -15z"/>
<path d="M20310 28066 c0 -2 9 -6 20 -9 11 -3 18 -1 14 4 -5 9 -34 13 -34 5z"/>
<path d="M21568 28033 c6 -2 10 -8 8 -12 -3 -4 1 -8 9 -8 11 0 12 4 4 14 -6 7
-17 13 -23 12 -7 0 -6 -2 2 -6z"/>
<path d="M21696 28023 c-6 -14 -5 -15 5 -6 7 7 10 15 7 18 -3 3 -9 -2 -12 -12z"/>
<path d="M21915 28030 c-4 -6 -10 -8 -14 -6 -4 3 -8 -1 -8 -9 0 -13 4 -12 19
2 18 16 22 23 14 23 -3 0 -8 -5 -11 -10z"/>
<path d="M22076 28027 c3 -10 9 -15 12 -12 3 3 0 11 -7 18 -10 9 -11 8 -5 -6z"/>
<path d="M18770 28025 c0 -7 30 -13 34 -7 3 4 -4 9 -15 9 -10 1 -19 0 -19 -2z"/>
<path d="M18895 28020 c3 -5 8 -10 11 -10 2 0 4 5 4 10 0 6 -5 10 -11 10 -5 0
-7 -4 -4 -10z"/>
<path d="M19015 28020 c3 -5 8 -10 11 -10 2 0 4 5 4 10 0 6 -5 10 -11 10 -5 0
-7 -4 -4 -10z"/>
<path d="M20368 28010 c-10 -10 -13 -22 -8 -25 5 -3 11 4 15 15 4 11 11 17 17
14 7 -4 8 -2 4 4 -9 15 -9 15 -28 -8z"/>
<path d="M21334 28018 c-5 -7 -2 -9 8 -5 9 3 20 1 25 -4 6 -6 10 -5 10 4 0 16
-34 20 -43 5z"/>
<path d="M21444 28019 c-2 -4 0 -10 6 -14 6 -4 7 -12 4 -18 -4 -7 -3 -8 2 -4
5 5 9 12 9 15 0 4 3 12 7 18 4 6 0 11 -8 11 -8 0 -17 -4 -20 -8z"/>
<path d="M21630 28020 c0 -5 7 -7 15 -4 8 4 15 8 15 10 0 2 -7 4 -15 4 -8 0
-15 -4 -15 -10z"/>
<path d="M21778 28018 c6 -6 18 -8 28 -6 14 3 12 5 -9 10 -19 3 -25 2 -19 -4z"/>
<path d="M22110 28019 c0 -5 5 -7 10 -4 6 3 10 8 10 11 0 2 -4 4 -10 4 -5 0
-10 -5 -10 -11z"/>
<path d="M22215 28020 c3 -5 8 -10 11 -10 2 0 4 5 4 10 0 6 -5 10 -11 10 -5 0
-7 -4 -4 -10z"/>
<path d="M22250 28019 c0 -5 5 -7 10 -4 6 3 10 8 10 11 0 2 -4 4 -10 4 -5 0
-10 -5 -10 -11z"/>
<path d="M22290 28019 c0 -5 5 -7 10 -4 6 3 10 8 10 11 0 2 -4 4 -10 4 -5 0
-10 -5 -10 -11z"/>
<path d="M21930 28010 c-9 -6 -10 -10 -3 -10 6 0 15 5 18 10 8 12 4 12 -15 0z"/>
<path d="M22031 28004 c0 -11 3 -14 6 -6 3 7 2 16 -1 19 -3 4 -6 -2 -5 -13z"/>
<path d="M20410 28000 c0 -5 5 -10 10 -10 6 0 10 5 10 10 0 6 -4 10 -10 10 -5
0 -10 -4 -10 -10z"/>
<path d="M21748 28003 c7 -3 16 -2 19 1 4 3 -2 6 -13 5 -11 0 -14 -3 -6 -6z"/>
<path d="M21845 28000 c-3 -6 1 -7 9 -4 18 7 21 14 7 14 -6 0 -13 -4 -16 -10z"/>
<path d="M23871 27966 c-8 -10 -9 -16 -1 -21 5 -3 10 -5 11 -3 4 18 7 38 4 38
-1 0 -8 -6 -14 -14z"/>
<path d="M23950 27940 c0 -5 5 -10 11 -10 5 0 7 5 4 10 -3 6 -8 10 -11 10 -2
0 -4 -4 -4 -10z"/>
<path d="M24045 27880 c-3 -6 1 -7 9 -4 18 7 21 14 7 14 -6 0 -13 -4 -16 -10z"/>
<path d="M24247 27767 c-9 -23 8 -30 24 -10 8 9 9 14 2 10 -6 -4 -13 -2 -15 5
-3 8 -7 6 -11 -5z"/>
<path d="M24313 27743 c4 -6 4 -13 -1 -15 -4 -1 10 -18 30 -37 21 -18 36 -27
32 -18 -3 8 -12 18 -20 21 -9 3 -12 11 -9 16 4 6 1 9 -6 8 -7 -2 -13 2 -14 9
0 6 -4 15 -9 20 -5 4 -6 3 -3 -4z"/>
<path d="M24447 27589 c7 -7 15 -10 18 -7 3 3 -2 9 -12 12 -14 6 -15 5 -6 -5z"/>
<path d="M24510 27561 c0 -6 4 -13 10 -16 6 -3 7 1 4 9 -7 18 -14 21 -14 7z"/>
<path d="M24590 27440 c6 -11 16 -20 23 -19 9 0 9 2 -1 6 -6 2 -10 8 -7 13 3
4 -2 11 -10 14 -13 4 -14 2 -5 -14z"/>
<path d="M24466 25548 c3 -5 10 -6 15 -3 13 9 11 12 -6 12 -8 0 -12 -4 -9 -9z"/>
<path d="M24495 25540 c-3 -5 -1 -10 4 -10 6 0 11 5 11 10 0 6 -2 10 -4 10 -3
0 -8 -4 -11 -10z"/>
<path d="M24326 25431 c-3 -5 1 -11 9 -15 8 -3 15 -1 15 4 0 13 -18 22 -24 11z"/>
<path d="M24310 25406 c0 -2 7 -7 16 -10 8 -3 12 -2 9 4 -6 10 -25 14 -25 6z"/>
<path d="M16075 25190 c3 -5 8 -10 11 -10 2 0 4 5 4 10 0 6 -5 10 -11 10 -5 0
-7 -4 -4 -10z"/>
<path d="M16367 25119 c7 -7 15 -10 18 -7 3 3 -2 9 -12 12 -14 6 -15 5 -6 -5z"/>
</g>
</svg>
